# xmcd
#
# Track frame offsets:
#	150
#	12160
#	24576
#	34818
#	45310
#	55483
#	67161
#	77361
#	89748
#	100840
#	109702
#	122800
#	133892
#	145360
#	155866
#	169131
#	180585
#	192876
#	205710
#	218195
#	231348
#	244558
#
# Disc length: 3420 seconds
#
# Revision: 1
# Processed by: cddbd v1.5.2PL0 Copyright (c) Steve Scherf et al.
# Submitted via: audiograbber 1.83.01
#
DISCID=3b0d5a16
DTITLE=Five Blind Boys Of Mississippi  - 1947-1951 ( Disc 1 )
DYEAR=2007
DGENRE=Gospel
TTITLE0=I'm Standing In The Safety Zone
TTITLE1=The Lord Will Make A Way
TTITLE2=John Saw The Holy Number
TTITLE3=Lord I'm Tired
TTITLE4=I'll Never Turn Back
TTITLE5=Jesus Will Help Me
TTITLE6=I Must Tell Jesus
TTITLE7=I Want Wings
TTITLE8=Working On The Building
TTITLE9=You Got To Move
TTITLE10=Jesus Travelled This Road Before
TTITLE11=Must Be God Somewhere
TTITLE12=Never Turn Back
TTITLE13=When God Dips His Pen Of Love
TTITLE14=One Of These Days
TTITLE15=Something Within Me
TTITLE16=Amazing Grace
TTITLE17=Jesus Gave Me Water
TTITLE18=Move In The Room Of The Lord
TTITLE19=Our Father
TTITLE20=He's My Rock
TTITLE21=I've Got A Right
EXTD=CD compiled of old 78 records
EXTT0=
EXTT1=
EXTT2=
EXTT3=
EXTT4=
EXTT5=
EXTT6=
EXTT7=
EXTT8=
EXTT9=
EXTT10=
EXTT11=
EXTT12=
EXTT13=
EXTT14=
EXTT15=
EXTT16=
EXTT17=
EXTT18=
EXTT19=
EXTT20=
EXTT21=
PLAYORDER=
